ISO-10303-21;
HEADER;
/* Generated by software containing ST-Developer
 * from STEP Tools, Inc. (www.steptools.com) 
 */

FILE_DESCRIPTION(
/* description */ (''),
/* implementation_level */ '2;1');

FILE_NAME(
/* name */ 'NexusV2 Sensor Mount v3.step',
/* time_stamp */ '2026-09-07T15:53:39+01:00',
/* author */ (''),
/* organization */ (''),
/* preprocessor_version */ 'ST-DEVELOPER v20.1',
/* originating_system */ 'Autodesk Translation Framework v14.17.0.0',
/* authorisation */ '');

FILE_SCHEMA (('AUTOMOTIVE_DESIGN { 1 0 10303 214 3 1 1 }'));
ENDSEC;

DATA;
#10=MECHANICAL_DESIGN_GEOMETRIC_PRESENTATION_REPRESENTATION('',(#13),#544);
#11=SHAPE_REPRESENTATION_RELATIONSHIP('SRR','None',#551,#12);
#12=ADVANCED_BREP_SHAPE_REPRESENTATION('',(#14),#543);
#13=STYLED_ITEM('',(#560),#14);
#14=MANIFOLD_SOLID_BREP('Corpo1',#312);
#15=FACE_BOUND('',#59,.T.);
#16=FACE_BOUND('',#60,.T.);
#17=FACE_BOUND('',#63,.T.);
#18=FACE_BOUND('',#64,.T.);
#19=FACE_BOUND('',#66,.T.);
#20=FACE_BOUND('',#69,.T.);
#21=FACE_BOUND('',#78,.T.);
#22=FACE_BOUND('',#79,.T.);
#23=PLANE('',#329);
#24=PLANE('',#333);
#25=PLANE('',#337);
#26=PLANE('',#339);
#27=PLANE('',#340);
#28=PLANE('',#343);
#29=PLANE('',#347);
#30=PLANE('',#353);
#31=PLANE('',#356);
#32=PLANE('',#359);
#33=PLANE('',#360);
#34=FACE_OUTER_BOUND('',#53,.T.);
#35=FACE_OUTER_BOUND('',#54,.T.);
#36=FACE_OUTER_BOUND('',#55,.T.);
#37=FACE_OUTER_BOUND('',#56,.T.);
#38=FACE_OUTER_BOUND('',#57,.T.);
#39=FACE_OUTER_BOUND('',#58,.T.);
#40=FACE_OUTER_BOUND('',#61,.T.);
#41=FACE_OUTER_BOUND('',#62,.T.);
#42=FACE_OUTER_BOUND('',#65,.T.);
#43=FACE_OUTER_BOUND('',#67,.T.);
#44=FACE_OUTER_BOUND('',#68,.T.);
#45=FACE_OUTER_BOUND('',#70,.T.);
#46=FACE_OUTER_BOUND('',#71,.T.);
#47=FACE_OUTER_BOUND('',#72,.T.);
#48=FACE_OUTER_BOUND('',#73,.T.);
#49=FACE_OUTER_BOUND('',#74,.T.);
#50=FACE_OUTER_BOUND('',#75,.T.);
#51=FACE_OUTER_BOUND('',#76,.T.);
#52=FACE_OUTER_BOUND('',#77,.T.);
#53=EDGE_LOOP('',(#207,#208,#209,#210));
#54=EDGE_LOOP('',(#211,#212,#213,#214));
#55=EDGE_LOOP('',(#215,#216,#217,#218));
#56=EDGE_LOOP('',(#219,#220,#221,#222));
#57=EDGE_LOOP('',(#223,#224,#225,#226));
#58=EDGE_LOOP('',(#227,#228,#229,#230));
#59=EDGE_LOOP('',(#231,#232,#233,#234));
#60=EDGE_LOOP('',(#235));
#61=EDGE_LOOP('',(#236,#237,#238,#239));
#62=EDGE_LOOP('',(#240,#241,#242,#243));
#63=EDGE_LOOP('',(#244));
#64=EDGE_LOOP('',(#245));
#65=EDGE_LOOP('',(#246,#247,#248,#249));
#66=EDGE_LOOP('',(#250));
#67=EDGE_LOOP('',(#251,#252,#253,#254));
#68=EDGE_LOOP('',(#255));
#69=EDGE_LOOP('',(#256));
#70=EDGE_LOOP('',(#257,#258,#259,#260));
#71=EDGE_LOOP('',(#261,#262,#263,#264));
#72=EDGE_LOOP('',(#265));
#73=EDGE_LOOP('',(#266,#267,#268,#269));
#74=EDGE_LOOP('',(#270));
#75=EDGE_LOOP('',(#271,#272,#273,#274));
#76=EDGE_LOOP('',(#275,#276,#277,#278));
#77=EDGE_LOOP('',(#279,#280,#281,#282));
#78=EDGE_LOOP('',(#283));
#79=EDGE_LOOP('',(#284));
#80=LINE('',#462,#103);
#81=LINE('',#465,#104);
#82=LINE('',#468,#105);
#83=LINE('',#470,#106);
#84=LINE('',#471,#107);
#85=LINE('',#476,#108);
#86=LINE('',#479,#109);
#87=LINE('',#480,#110);
#88=LINE('',#485,#111);
#89=LINE('',#492,#112);
#90=LINE('',#494,#113);
#91=LINE('',#495,#114);
#92=LINE('',#498,#115);
#93=LINE('',#500,#116);
#94=LINE('',#501,#117);
#95=LINE('',#504,#118);
#96=LINE('',#505,#119);
#97=LINE('',#516,#120);
#98=LINE('',#523,#121);
#99=LINE('',#527,#122);
#100=LINE('',#532,#123);
#101=LINE('',#537,#124);
#102=LINE('',#539,#125);
#103=VECTOR('',#367,10.);
#104=VECTOR('',#370,10.);
#105=VECTOR('',#373,10.);
#106=VECTOR('',#374,10.);
#107=VECTOR('',#375,10.);
#108=VECTOR('',#380,10.);
#109=VECTOR('',#385,10.);
#110=VECTOR('',#386,10.);
#111=VECTOR('',#391,2.95);
#112=VECTOR('',#398,10.);
#113=VECTOR('',#399,10.);
#114=VECTOR('',#400,10.);
#115=VECTOR('',#403,10.);
#116=VECTOR('',#404,10.);
#117=VECTOR('',#405,10.);
#118=VECTOR('',#408,10.);
#119=VECTOR('',#409,10.);
#120=VECTOR('',#422,1.55);
#121=VECTOR('',#431,2.55);
#122=VECTOR('',#436,1.5);
#123=VECTOR('',#443,1.5);
#124=VECTOR('',#450,10.);
#125=VECTOR('',#453,10.);
#126=CIRCLE('',#327,2.05);
#127=CIRCLE('',#328,2.05);
#128=CIRCLE('',#331,2.05);
#129=CIRCLE('',#332,2.05);
#130=CIRCLE('',#335,2.95);
#131=CIRCLE('',#336,2.95);
#132=CIRCLE('',#338,4.);
#133=CIRCLE('',#341,1.5);
#134=CIRCLE('',#342,1.5);
#135=CIRCLE('',#344,1.55);
#136=CIRCLE('',#346,1.55);
#137=CIRCLE('',#348,2.55);
#138=CIRCLE('',#350,2.55);
#139=CIRCLE('',#352,1.5);
#140=CIRCLE('',#355,1.5);
#141=CIRCLE('',#358,4.);
#142=VERTEX_POINT('',#458);
#143=VERTEX_POINT('',#459);
#144=VERTEX_POINT('',#461);
#145=VERTEX_POINT('',#463);
#146=VERTEX_POINT('',#467);
#147=VERTEX_POINT('',#469);
#148=VERTEX_POINT('',#473);
#149=VERTEX_POINT('',#475);
#150=VERTEX_POINT('',#482);
#151=VERTEX_POINT('',#484);
#152=VERTEX_POINT('',#488);
#153=VERTEX_POINT('',#489);
#154=VERTEX_POINT('',#491);
#155=VERTEX_POINT('',#493);
#156=VERTEX_POINT('',#497);
#157=VERTEX_POINT('',#499);
#158=VERTEX_POINT('',#503);
#159=VERTEX_POINT('',#506);
#160=VERTEX_POINT('',#508);
#161=VERTEX_POINT('',#511);
#162=VERTEX_POINT('',#514);
#163=VERTEX_POINT('',#518);
#164=VERTEX_POINT('',#521);
#165=VERTEX_POINT('',#525);
#166=VERTEX_POINT('',#530);
#167=VERTEX_POINT('',#535);
#168=EDGE_CURVE('',#142,#143,#126,.T.);
#169=EDGE_CURVE('',#142,#144,#80,.T.);
#170=EDGE_CURVE('',#144,#145,#127,.T.);
#171=EDGE_CURVE('',#143,#145,#81,.T.);
#172=EDGE_CURVE('',#146,#142,#82,.T.);
#173=EDGE_CURVE('',#146,#147,#83,.T.);
#174=EDGE_CURVE('',#147,#144,#84,.T.);
#175=EDGE_CURVE('',#148,#146,#128,.T.);
#176=EDGE_CURVE('',#148,#149,#85,.T.);
#177=EDGE_CURVE('',#149,#147,#129,.T.);
#178=EDGE_CURVE('',#143,#148,#86,.T.);
#179=EDGE_CURVE('',#145,#149,#87,.T.);
#180=EDGE_CURVE('',#150,#150,#130,.T.);
#181=EDGE_CURVE('',#150,#151,#88,.T.);
#182=EDGE_CURVE('',#151,#151,#131,.T.);
#183=EDGE_CURVE('',#152,#153,#132,.T.);
#184=EDGE_CURVE('',#154,#152,#89,.T.);
#185=EDGE_CURVE('',#155,#154,#90,.T.);
#186=EDGE_CURVE('',#153,#155,#91,.T.);
#187=EDGE_CURVE('',#156,#155,#92,.T.);
#188=EDGE_CURVE('',#156,#157,#93,.T.);
#189=EDGE_CURVE('',#153,#157,#94,.T.);
#190=EDGE_CURVE('',#154,#158,#95,.T.);
#191=EDGE_CURVE('',#158,#156,#96,.T.);
#192=EDGE_CURVE('',#159,#159,#133,.T.);
#193=EDGE_CURVE('',#160,#160,#134,.T.);
#194=EDGE_CURVE('',#161,#161,#135,.T.);
#195=EDGE_CURVE('',#162,#162,#136,.T.);
#196=EDGE_CURVE('',#162,#161,#97,.T.);
#197=EDGE_CURVE('',#163,#163,#137,.T.);
#198=EDGE_CURVE('',#164,#164,#138,.T.);
#199=EDGE_CURVE('',#164,#163,#98,.T.);
#200=EDGE_CURVE('',#165,#165,#139,.T.);
#201=EDGE_CURVE('',#165,#160,#99,.T.);
#202=EDGE_CURVE('',#166,#166,#140,.T.);
#203=EDGE_CURVE('',#166,#159,#100,.T.);
#204=EDGE_CURVE('',#157,#167,#141,.T.);
#205=EDGE_CURVE('',#167,#152,#101,.T.);
#206=EDGE_CURVE('',#167,#158,#102,.T.);
#207=ORIENTED_EDGE('',*,*,#168,.F.);
#208=ORIENTED_EDGE('',*,*,#169,.T.);
#209=ORIENTED_EDGE('',*,*,#170,.T.);
#210=ORIENTED_EDGE('',*,*,#171,.F.);
#211=ORIENTED_EDGE('',*,*,#172,.F.);
#212=ORIENTED_EDGE('',*,*,#173,.T.);
#213=ORIENTED_EDGE('',*,*,#174,.T.);
#214=ORIENTED_EDGE('',*,*,#169,.F.);
#215=ORIENTED_EDGE('',*,*,#175,.F.);
#216=ORIENTED_EDGE('',*,*,#176,.T.);
#217=ORIENTED_EDGE('',*,*,#177,.T.);
#218=ORIENTED_EDGE('',*,*,#173,.F.);
#219=ORIENTED_EDGE('',*,*,#178,.F.);
#220=ORIENTED_EDGE('',*,*,#171,.T.);
#221=ORIENTED_EDGE('',*,*,#179,.T.);
#222=ORIENTED_EDGE('',*,*,#176,.F.);
#223=ORIENTED_EDGE('',*,*,#180,.F.);
#224=ORIENTED_EDGE('',*,*,#181,.T.);
#225=ORIENTED_EDGE('',*,*,#182,.F.);
#226=ORIENTED_EDGE('',*,*,#181,.F.);
#227=ORIENTED_EDGE('',*,*,#183,.F.);
#228=ORIENTED_EDGE('',*,*,#184,.F.);
#229=ORIENTED_EDGE('',*,*,#185,.F.);
#230=ORIENTED_EDGE('',*,*,#186,.F.);
#231=ORIENTED_EDGE('',*,*,#168,.T.);
#232=ORIENTED_EDGE('',*,*,#178,.T.);
#233=ORIENTED_EDGE('',*,*,#175,.T.);
#234=ORIENTED_EDGE('',*,*,#172,.T.);
#235=ORIENTED_EDGE('',*,*,#182,.T.);
#236=ORIENTED_EDGE('',*,*,#186,.T.);
#237=ORIENTED_EDGE('',*,*,#187,.F.);
#238=ORIENTED_EDGE('',*,*,#188,.T.);
#239=ORIENTED_EDGE('',*,*,#189,.F.);
#240=ORIENTED_EDGE('',*,*,#185,.T.);
#241=ORIENTED_EDGE('',*,*,#190,.T.);
#242=ORIENTED_EDGE('',*,*,#191,.T.);
#243=ORIENTED_EDGE('',*,*,#187,.T.);
#244=ORIENTED_EDGE('',*,*,#192,.T.);
#245=ORIENTED_EDGE('',*,*,#193,.T.);
#246=ORIENTED_EDGE('',*,*,#179,.F.);
#247=ORIENTED_EDGE('',*,*,#170,.F.);
#248=ORIENTED_EDGE('',*,*,#174,.F.);
#249=ORIENTED_EDGE('',*,*,#177,.F.);
#250=ORIENTED_EDGE('',*,*,#194,.F.);
#251=ORIENTED_EDGE('',*,*,#195,.F.);
#252=ORIENTED_EDGE('',*,*,#196,.T.);
#253=ORIENTED_EDGE('',*,*,#194,.T.);
#254=ORIENTED_EDGE('',*,*,#196,.F.);
#255=ORIENTED_EDGE('',*,*,#180,.T.);
#256=ORIENTED_EDGE('',*,*,#197,.F.);
#257=ORIENTED_EDGE('',*,*,#198,.F.);
#258=ORIENTED_EDGE('',*,*,#199,.T.);
#259=ORIENTED_EDGE('',*,*,#197,.T.);
#260=ORIENTED_EDGE('',*,*,#199,.F.);
#261=ORIENTED_EDGE('',*,*,#200,.F.);
#262=ORIENTED_EDGE('',*,*,#201,.T.);
#263=ORIENTED_EDGE('',*,*,#193,.F.);
#264=ORIENTED_EDGE('',*,*,#201,.F.);
#265=ORIENTED_EDGE('',*,*,#200,.T.);
#266=ORIENTED_EDGE('',*,*,#202,.F.);
#267=ORIENTED_EDGE('',*,*,#203,.T.);
#268=ORIENTED_EDGE('',*,*,#192,.F.);
#269=ORIENTED_EDGE('',*,*,#203,.F.);
#270=ORIENTED_EDGE('',*,*,#202,.T.);
#271=ORIENTED_EDGE('',*,*,#183,.T.);
#272=ORIENTED_EDGE('',*,*,#189,.T.);
#273=ORIENTED_EDGE('',*,*,#204,.T.);
#274=ORIENTED_EDGE('',*,*,#205,.T.);
#275=ORIENTED_EDGE('',*,*,#184,.T.);
#276=ORIENTED_EDGE('',*,*,#205,.F.);
#277=ORIENTED_EDGE('',*,*,#206,.T.);
#278=ORIENTED_EDGE('',*,*,#190,.F.);
#279=ORIENTED_EDGE('',*,*,#204,.F.);
#280=ORIENTED_EDGE('',*,*,#188,.F.);
#281=ORIENTED_EDGE('',*,*,#191,.F.);
#282=ORIENTED_EDGE('',*,*,#206,.F.);
#283=ORIENTED_EDGE('',*,*,#195,.T.);
#284=ORIENTED_EDGE('',*,*,#198,.T.);
#285=CYLINDRICAL_SURFACE('',#326,2.05);
#286=CYLINDRICAL_SURFACE('',#330,2.05);
#287=CYLINDRICAL_SURFACE('',#334,2.95);
#288=CYLINDRICAL_SURFACE('',#345,1.55);
#289=CYLINDRICAL_SURFACE('',#349,2.55);
#290=CYLINDRICAL_SURFACE('',#351,1.5);
#291=CYLINDRICAL_SURFACE('',#354,1.5);
#292=CYLINDRICAL_SURFACE('',#357,4.);
#293=ADVANCED_FACE('',(#34),#285,.F.);
#294=ADVANCED_FACE('',(#35),#23,.F.);
#295=ADVANCED_FACE('',(#36),#286,.F.);
#296=ADVANCED_FACE('',(#37),#24,.F.);
#297=ADVANCED_FACE('',(#38),#287,.F.);
#298=ADVANCED_FACE('',(#39,#15,#16),#25,.T.);
#299=ADVANCED_FACE('',(#40),#26,.T.);
#300=ADVANCED_FACE('',(#41,#17,#18),#27,.F.);
#301=ADVANCED_FACE('',(#42,#19),#28,.T.);
#302=ADVANCED_FACE('',(#43),#288,.F.);
#303=ADVANCED_FACE('',(#44,#20),#29,.T.);
#304=ADVANCED_FACE('',(#45),#289,.F.);
#305=ADVANCED_FACE('',(#46),#290,.T.);
#306=ADVANCED_FACE('',(#47),#30,.T.);
#307=ADVANCED_FACE('',(#48),#291,.T.);
#308=ADVANCED_FACE('',(#49),#31,.T.);
#309=ADVANCED_FACE('',(#50),#292,.T.);
#310=ADVANCED_FACE('',(#51),#32,.T.);
#311=ADVANCED_FACE('',(#52,#21,#22),#33,.F.);
#312=CLOSED_SHELL('',(#293,#294,#295,#296,#297,#298,#299,#300,#301,#302,
#303,#304,#305,#306,#307,#308,#309,#310,#311));
#313=DERIVED_UNIT_ELEMENT(#315,1.);
#314=DERIVED_UNIT_ELEMENT(#546,-3.);
#315=(
MASS_UNIT()
NAMED_UNIT(*)
SI_UNIT(.KILO.,.GRAM.)
);
#316=DERIVED_UNIT((#313,#314));
#317=MEASURE_REPRESENTATION_ITEM('density measure',
POSITIVE_RATIO_MEASURE(7850.),#316);
#318=PROPERTY_DEFINITION_REPRESENTATION(#323,#320);
#319=PROPERTY_DEFINITION_REPRESENTATION(#324,#321);
#320=REPRESENTATION('material name',(#322),#543);
#321=REPRESENTATION('density',(#317),#543);
#322=DESCRIPTIVE_REPRESENTATION_ITEM('A\X\E7o','A\X\E7o');
#323=PROPERTY_DEFINITION('material property','material name',#553);
#324=PROPERTY_DEFINITION('material property','density of part',#553);
#325=AXIS2_PLACEMENT_3D('',#456,#361,#362);
#326=AXIS2_PLACEMENT_3D('',#457,#363,#364);
#327=AXIS2_PLACEMENT_3D('',#460,#365,#366);
#328=AXIS2_PLACEMENT_3D('',#464,#368,#369);
#329=AXIS2_PLACEMENT_3D('',#466,#371,#372);
#330=AXIS2_PLACEMENT_3D('',#472,#376,#377);
#331=AXIS2_PLACEMENT_3D('',#474,#378,#379);
#332=AXIS2_PLACEMENT_3D('',#477,#381,#382);
#333=AXIS2_PLACEMENT_3D('',#478,#383,#384);
#334=AXIS2_PLACEMENT_3D('',#481,#387,#388);
#335=AXIS2_PLACEMENT_3D('',#483,#389,#390);
#336=AXIS2_PLACEMENT_3D('',#486,#392,#393);
#337=AXIS2_PLACEMENT_3D('',#487,#394,#395);
#338=AXIS2_PLACEMENT_3D('',#490,#396,#397);
#339=AXIS2_PLACEMENT_3D('',#496,#401,#402);
#340=AXIS2_PLACEMENT_3D('',#502,#406,#407);
#341=AXIS2_PLACEMENT_3D('',#507,#410,#411);
#342=AXIS2_PLACEMENT_3D('',#509,#412,#413);
#343=AXIS2_PLACEMENT_3D('',#510,#414,#415);
#344=AXIS2_PLACEMENT_3D('',#512,#416,#417);
#345=AXIS2_PLACEMENT_3D('',#513,#418,#419);
#346=AXIS2_PLACEMENT_3D('',#515,#420,#421);
#347=AXIS2_PLACEMENT_3D('',#517,#423,#424);
#348=AXIS2_PLACEMENT_3D('',#519,#425,#426);
#349=AXIS2_PLACEMENT_3D('',#520,#427,#428);
#350=AXIS2_PLACEMENT_3D('',#522,#429,#430);
#351=AXIS2_PLACEMENT_3D('',#524,#432,#433);
#352=AXIS2_PLACEMENT_3D('',#526,#434,#435);
#353=AXIS2_PLACEMENT_3D('',#528,#437,#438);
#354=AXIS2_PLACEMENT_3D('',#529,#439,#440);
#355=AXIS2_PLACEMENT_3D('',#531,#441,#442);
#356=AXIS2_PLACEMENT_3D('',#533,#444,#445);
#357=AXIS2_PLACEMENT_3D('',#534,#446,#447);
#358=AXIS2_PLACEMENT_3D('',#536,#448,#449);
#359=AXIS2_PLACEMENT_3D('',#538,#451,#452);
#360=AXIS2_PLACEMENT_3D('',#540,#454,#455);
#361=DIRECTION('axis',(0.,0.,1.));
#362=DIRECTION('refdir',(1.,0.,0.));
#363=DIRECTION('center_axis',(-1.,0.,0.));
#364=DIRECTION('ref_axis',(0.,1.,0.));
#365=DIRECTION('center_axis',(-1.,0.,0.));
#366=DIRECTION('ref_axis',(0.,1.,0.));
#367=DIRECTION('',(-1.,0.,0.));
#368=DIRECTION('center_axis',(-1.,0.,0.));
#369=DIRECTION('ref_axis',(0.,1.,0.));
#370=DIRECTION('',(-1.,0.,0.));
#371=DIRECTION('center_axis',(0.,1.,1.03981913255524E-15));
#372=DIRECTION('ref_axis',(0.,1.03981913255524E-15,-1.));
#373=DIRECTION('',(0.,1.03981913255524E-15,-1.));
#374=DIRECTION('',(-1.,0.,0.));
#375=DIRECTION('',(0.,1.03981913255524E-15,-1.));
#376=DIRECTION('center_axis',(-1.,0.,0.));
#377=DIRECTION('ref_axis',(0.,1.,0.));
#378=DIRECTION('center_axis',(-1.,0.,0.));
#379=DIRECTION('ref_axis',(0.,1.,0.));
#380=DIRECTION('',(-1.,0.,0.));
#381=DIRECTION('center_axis',(-1.,0.,0.));
#382=DIRECTION('ref_axis',(0.,1.,0.));
#383=DIRECTION('center_axis',(0.,-1.,-2.07963826511047E-15));
#384=DIRECTION('ref_axis',(0.,-2.07963826511047E-15,1.));
#385=DIRECTION('',(0.,-2.07963826511047E-15,1.));
#386=DIRECTION('',(0.,-2.07963826511047E-15,1.));
#387=DIRECTION('center_axis',(-1.,0.,0.));
#388=DIRECTION('ref_axis',(0.,1.,0.));
#389=DIRECTION('center_axis',(1.,0.,0.));
#390=DIRECTION('ref_axis',(0.,1.,0.));
#391=DIRECTION('',(1.,0.,0.));
#392=DIRECTION('center_axis',(-1.,0.,0.));
#393=DIRECTION('ref_axis',(0.,1.,0.));
#394=DIRECTION('center_axis',(1.,0.,0.));
#395=DIRECTION('ref_axis',(0.,1.,0.));
#396=DIRECTION('center_axis',(-1.,0.,0.));
#397=DIRECTION('ref_axis',(0.,-0.707106781186547,0.707106781186548));
#398=DIRECTION('',(0.,0.,1.));
#399=DIRECTION('',(0.,-1.,0.));
#400=DIRECTION('',(0.,0.,-1.));
#401=DIRECTION('center_axis',(0.,1.,0.));
#402=DIRECTION('ref_axis',(-1.,0.,0.));
#403=DIRECTION('',(1.,0.,0.));
#404=DIRECTION('',(0.,0.,1.));
#405=DIRECTION('',(-1.,0.,0.));
#406=DIRECTION('center_axis',(0.,0.,1.));
#407=DIRECTION('ref_axis',(1.,0.,0.));
#408=DIRECTION('',(-1.,0.,0.));
#409=DIRECTION('',(0.,1.,0.));
#410=DIRECTION('center_axis',(0.,0.,1.));
#411=DIRECTION('ref_axis',(1.,0.,0.));
#412=DIRECTION('center_axis',(0.,0.,1.));
#413=DIRECTION('ref_axis',(1.,0.,0.));
#414=DIRECTION('center_axis',(1.,0.,0.));
#415=DIRECTION('ref_axis',(0.,1.,0.));
#416=DIRECTION('center_axis',(1.,0.,0.));
#417=DIRECTION('ref_axis',(0.,-1.,0.));
#418=DIRECTION('center_axis',(1.,0.,0.));
#419=DIRECTION('ref_axis',(0.,-1.,0.));
#420=DIRECTION('center_axis',(1.,0.,0.));
#421=DIRECTION('ref_axis',(0.,-1.,0.));
#422=DIRECTION('',(1.,0.,0.));
#423=DIRECTION('center_axis',(1.,0.,0.));
#424=DIRECTION('ref_axis',(0.,1.,0.));
#425=DIRECTION('center_axis',(1.,0.,0.));
#426=DIRECTION('ref_axis',(0.,-1.,0.));
#427=DIRECTION('center_axis',(1.,0.,0.));
#428=DIRECTION('ref_axis',(0.,-1.,0.));
#429=DIRECTION('center_axis',(1.,0.,0.));
#430=DIRECTION('ref_axis',(0.,-1.,0.));
#431=DIRECTION('',(1.,0.,0.));
#432=DIRECTION('center_axis',(0.,0.,-1.));
#433=DIRECTION('ref_axis',(1.,0.,0.));
#434=DIRECTION('center_axis',(0.,0.,-1.));
#435=DIRECTION('ref_axis',(1.,0.,0.));
#436=DIRECTION('',(0.,0.,1.));
#437=DIRECTION('center_axis',(0.,0.,-1.));
#438=DIRECTION('ref_axis',(1.,0.,0.));
#439=DIRECTION('center_axis',(0.,0.,-1.));
#440=DIRECTION('ref_axis',(1.,0.,0.));
#441=DIRECTION('center_axis',(0.,0.,-1.));
#442=DIRECTION('ref_axis',(1.,0.,0.));
#443=DIRECTION('',(0.,0.,1.));
#444=DIRECTION('center_axis',(0.,0.,-1.));
#445=DIRECTION('ref_axis',(1.,0.,0.));
#446=DIRECTION('center_axis',(-1.,0.,0.));
#447=DIRECTION('ref_axis',(0.,-0.707106781186547,0.707106781186548));
#448=DIRECTION('center_axis',(1.,0.,0.));
#449=DIRECTION('ref_axis',(0.,0.707106781186548,0.707106781186548));
#450=DIRECTION('',(1.,0.,0.));
#451=DIRECTION('center_axis',(0.,-1.,0.));
#452=DIRECTION('ref_axis',(1.,0.,0.));
#453=DIRECTION('',(0.,0.,-1.));
#454=DIRECTION('center_axis',(1.,0.,0.));
#455=DIRECTION('ref_axis',(0.,0.,-1.));
#456=CARTESIAN_POINT('',(0.,0.,0.));
#457=CARTESIAN_POINT('Origin',(-0.7,4.,2.94999993406236));
#458=CARTESIAN_POINT('',(-0.7,5.75,1.88229210885923));
#459=CARTESIAN_POINT('',(-0.7,2.25,1.88229210885923));
#460=CARTESIAN_POINT('Origin',(-0.7,4.,2.94999993406236));
#461=CARTESIAN_POINT('',(-5.9,5.75,1.88229210885923));
#462=CARTESIAN_POINT('',(-0.7,5.75,1.88229210885923));
#463=CARTESIAN_POINT('',(-5.9,2.25,1.88229210885923));
#464=CARTESIAN_POINT('Origin',(-5.9,4.,2.94999993406236));
#465=CARTESIAN_POINT('',(-0.7,2.25,1.88229210885923));
#466=CARTESIAN_POINT('Origin',(-0.7,5.75,4.01770775926692));
#467=CARTESIAN_POINT('',(-0.7,5.74999999999913,4.01770775926692));
#468=CARTESIAN_POINT('',(-0.7,5.75,2.00885387963346));
#469=CARTESIAN_POINT('',(-5.9,5.74999999999913,4.01770775926692));
#470=CARTESIAN_POINT('',(-0.7,5.74999999999913,4.01770775926692));
#471=CARTESIAN_POINT('',(-5.9,5.75,2.94999993406236));
#472=CARTESIAN_POINT('Origin',(-0.7,4.,2.94999993406236));
#473=CARTESIAN_POINT('',(-0.7,2.25,4.01770775926549));
#474=CARTESIAN_POINT('Origin',(-0.7,4.,2.94999993406236));
#475=CARTESIAN_POINT('',(-5.9,2.25,4.01770775926549));
#476=CARTESIAN_POINT('',(-0.7,2.25,4.01770775926549));
#477=CARTESIAN_POINT('Origin',(-5.9,4.,2.94999993406236));
#478=CARTESIAN_POINT('Origin',(-0.7,2.25,1.88229210885923));
#479=CARTESIAN_POINT('',(-0.7,2.25,0.941146054429616));
#480=CARTESIAN_POINT('',(-5.9,2.25,2.94999993406236));
#481=CARTESIAN_POINT('Origin',(-0.7,3.99999991059303,8.59999980777502));
#482=CARTESIAN_POINT('',(-2.3,1.04999991059303,8.59999980777502));
#483=CARTESIAN_POINT('Origin',(-2.3,3.99999991059303,8.59999980777502));
#484=CARTESIAN_POINT('',(-0.7,1.04999991059303,8.59999980777502));
#485=CARTESIAN_POINT('',(-0.7,1.04999991059303,8.59999980777502));
#486=CARTESIAN_POINT('Origin',(-0.7,3.99999991059303,8.59999980777502));
#487=CARTESIAN_POINT('Origin',(-0.7,0.,0.));
#488=CARTESIAN_POINT('',(-0.7,0.,10.));
#489=CARTESIAN_POINT('',(-0.7,8.,10.));
#490=CARTESIAN_POINT('Origin',(-0.7,4.,10.));
#491=CARTESIAN_POINT('',(-0.7,0.,0.));
#492=CARTESIAN_POINT('',(-0.7,0.,0.));
#493=CARTESIAN_POINT('',(-0.7,8.,0.));
#494=CARTESIAN_POINT('',(-0.7,2.,0.));
#495=CARTESIAN_POINT('',(-0.7,8.,0.));
#496=CARTESIAN_POINT('Origin',(0.,8.,0.));
#497=CARTESIAN_POINT('',(-9.3,8.,0.));
#498=CARTESIAN_POINT('',(-10.,8.,0.));
#499=CARTESIAN_POINT('',(-9.3,8.,10.));
#500=CARTESIAN_POINT('',(-9.3,8.,0.));
#501=CARTESIAN_POINT('',(-2.5,8.,10.));
#502=CARTESIAN_POINT('Origin',(-5.,4.,0.));
#503=CARTESIAN_POINT('',(-9.3,0.,0.));
#504=CARTESIAN_POINT('',(0.,0.,0.));
#505=CARTESIAN_POINT('',(-9.3,6.,0.));
#506=CARTESIAN_POINT('',(-3.825,4.,0.));
#507=CARTESIAN_POINT('Origin',(-2.325,4.,0.));
#508=CARTESIAN_POINT('',(-8.475,4.,0.));
#509=CARTESIAN_POINT('Origin',(-6.975,4.,0.));
#510=CARTESIAN_POINT('Origin',(-5.9,4.,2.94999993406236));
#511=CARTESIAN_POINT('',(-5.9,5.55,2.95000009052455));
#512=CARTESIAN_POINT('Origin',(-5.9,4.,2.95000009052455));
#513=CARTESIAN_POINT('Origin',(-9.3,4.,2.95000009052455));
#514=CARTESIAN_POINT('',(-9.3,5.55,2.95000009052455));
#515=CARTESIAN_POINT('Origin',(-9.3,4.,2.95000009052455));
#516=CARTESIAN_POINT('',(-9.3,5.55,2.95000009052455));
#517=CARTESIAN_POINT('Origin',(-2.3,3.99999991059303,8.59999980777502));
#518=CARTESIAN_POINT('',(-2.3,6.55,8.59999996423721));
#519=CARTESIAN_POINT('Origin',(-2.3,4.,8.59999996423721));
#520=CARTESIAN_POINT('Origin',(-9.3,4.,8.59999996423721));
#521=CARTESIAN_POINT('',(-9.3,6.55,8.59999996423721));
#522=CARTESIAN_POINT('Origin',(-9.3,4.,8.59999996423721));
#523=CARTESIAN_POINT('',(-9.3,6.55,8.59999996423721));
#524=CARTESIAN_POINT('Origin',(-6.975,4.,0.));
#525=CARTESIAN_POINT('',(-8.475,4.,-1.5));
#526=CARTESIAN_POINT('Origin',(-6.975,4.,-1.5));
#527=CARTESIAN_POINT('',(-8.475,4.,0.));
#528=CARTESIAN_POINT('Origin',(-6.975,4.,-1.5));
#529=CARTESIAN_POINT('Origin',(-2.325,4.,0.));
#530=CARTESIAN_POINT('',(-3.825,4.,-1.5));
#531=CARTESIAN_POINT('Origin',(-2.325,4.,-1.5));
#532=CARTESIAN_POINT('',(-3.825,4.,0.));
#533=CARTESIAN_POINT('Origin',(-2.325,4.,-1.5));
#534=CARTESIAN_POINT('Origin',(-7.5,4.,10.));
#535=CARTESIAN_POINT('',(-9.3,0.,10.));
#536=CARTESIAN_POINT('Origin',(-9.3,4.,10.));
#537=CARTESIAN_POINT('',(-7.5,0.,10.));
#538=CARTESIAN_POINT('Origin',(-10.,0.,0.));
#539=CARTESIAN_POINT('',(-9.3,0.,0.));
#540=CARTESIAN_POINT('Origin',(-9.3,8.,0.));
#541=UNCERTAINTY_MEASURE_WITH_UNIT(LENGTH_MEASURE(0.01),#545,
'DISTANCE_ACCURACY_VALUE',
'Maximum model space distance between geometric entities at asserted c
onnectivities');
#542=UNCERTAINTY_MEASURE_WITH_UNIT(LENGTH_MEASURE(0.01),#545,
'DISTANCE_ACCURACY_VALUE',
'Maximum model space distance between geometric entities at asserted c
onnectivities');
#543=(
GEOMETRIC_REPRESENTATION_CONTEXT(3)
GLOBAL_UNCERTAINTY_ASSIGNED_CONTEXT((#541))
GLOBAL_UNIT_ASSIGNED_CONTEXT((#545,#547,#548))
REPRESENTATION_CONTEXT('','3D')
);
#544=(
GEOMETRIC_REPRESENTATION_CONTEXT(3)
GLOBAL_UNCERTAINTY_ASSIGNED_CONTEXT((#542))
GLOBAL_UNIT_ASSIGNED_CONTEXT((#545,#547,#548))
REPRESENTATION_CONTEXT('','3D')
);
#545=(
LENGTH_UNIT()
NAMED_UNIT(*)
SI_UNIT(.MILLI.,.METRE.)
);
#546=(
LENGTH_UNIT()
NAMED_UNIT(*)
SI_UNIT($,.METRE.)
);
#547=(
NAMED_UNIT(*)
PLANE_ANGLE_UNIT()
SI_UNIT($,.RADIAN.)
);
#548=(
NAMED_UNIT(*)
SI_UNIT($,.STERADIAN.)
SOLID_ANGLE_UNIT()
);
#549=SHAPE_DEFINITION_REPRESENTATION(#550,#551);
#550=PRODUCT_DEFINITION_SHAPE('',$,#553);
#551=SHAPE_REPRESENTATION('',(#325),#543);
#552=PRODUCT_DEFINITION_CONTEXT('part definition',#557,'design');
#553=PRODUCT_DEFINITION('NexusV2 Sensor Mount',
'NexusV2 Sensor Mount v3',#554,#552);
#554=PRODUCT_DEFINITION_FORMATION('',$,#559);
#555=PRODUCT_RELATED_PRODUCT_CATEGORY('NexusV2 Sensor Mount v3',
'NexusV2 Sensor Mount v3',(#559));
#556=APPLICATION_PROTOCOL_DEFINITION('international standard',
'automotive_design',2009,#557);
#557=APPLICATION_CONTEXT(
'Core Data for Automotive Mechanical Design Process');
#558=PRODUCT_CONTEXT('part definition',#557,'mechanical');
#559=PRODUCT('NexusV2 Sensor Mount','NexusV2 Sensor Mount v3',$,(#558));
#560=PRESENTATION_STYLE_ASSIGNMENT((#561));
#561=SURFACE_STYLE_USAGE(.BOTH.,#562);
#562=SURFACE_SIDE_STYLE('',(#563));
#563=SURFACE_STYLE_FILL_AREA(#564);
#564=FILL_AREA_STYLE('A\X\E7o - Acetinado',(#565));
#565=FILL_AREA_STYLE_COLOUR('A\X\E7o - Acetinado',#566);
#566=COLOUR_RGB('A\X\E7o - Acetinado',0.627450980392157,0.627450980392157,
0.627450980392157);
ENDSEC;
END-ISO-10303-21;
