ISO-10303-21;
HEADER;
/* Generated by software containing ST-Developer
 * from STEP Tools, Inc. (www.steptools.com) 
 */

FILE_DESCRIPTION(
/* description */ (''),
/* implementation_level */ '2;1');

FILE_NAME(
/* name */ 'SlidePad_NexusV2 v2.step',
/* time_stamp */ '2026-09-07T15:54:05+01:00',
/* author */ (''),
/* organization */ (''),
/* preprocessor_version */ 'ST-DEVELOPER v20.1',
/* originating_system */ 'Autodesk Translation Framework v14.17.0.0',
/* authorisation */ '');

FILE_SCHEMA (('AUTOMOTIVE_DESIGN { 1 0 10303 214 3 1 1 }'));
ENDSEC;

DATA;
#10=MECHANICAL_DESIGN_GEOMETRIC_PRESENTATION_REPRESENTATION('',(#13),#499);
#11=SHAPE_REPRESENTATION_RELATIONSHIP('SRR','None',#506,#12);
#12=ADVANCED_BREP_SHAPE_REPRESENTATION('',(#14),#498);
#13=STYLED_ITEM('',(#515),#14);
#14=MANIFOLD_SOLID_BREP('Corpo1',#270);
#15=(
BOUNDED_SURFACE()
B_SPLINE_SURFACE(2,2,((#467,#468,#469,#470,#471,#472,#473,#474,#475),(#476,
#477,#478,#479,#480,#481,#482,#483,#484),(#485,#486,#487,#488,#489,#490,
#491,#492,#493)),.UNSPECIFIED.,.F.,.T.,.F.)
B_SPLINE_SURFACE_WITH_KNOTS((3,3),(3,2,2,2,3),(1.25265593305301,1.53959231741991),
(-3.14159265358979,-1.5707963267949,0.,1.5707963267949,3.14159265358979),
 .UNSPECIFIED.)
GEOMETRIC_REPRESENTATION_ITEM()
RATIONAL_B_SPLINE_SURFACE(((1.,0.707106781186548,1.,0.707106781186548,1.,
0.707106781186548,1.,0.707106781186548,1.),(0.989726079513577,0.699842022341227,
0.989726079513577,0.699842022341227,0.989726079513577,0.699842022341227,
0.989726079513577,0.699842022341227,0.989726079513577),(1.,0.707106781186548,
1.,0.707106781186548,1.,0.707106781186548,1.,0.707106781186548,1.)))
REPRESENTATION_ITEM('')
SURFACE()
);
#16=CYLINDRICAL_SURFACE('',#300,1.);
#17=CYLINDRICAL_SURFACE('',#303,1.5);
#18=CYLINDRICAL_SURFACE('',#306,1.);
#19=CYLINDRICAL_SURFACE('',#309,8.50000006332994);
#20=FACE_BOUND('',#61,.T.);
#21=FACE_BOUND('',#62,.T.);
#22=FACE_BOUND('',#63,.T.);
#23=CIRCLE('',#288,8.50000006332994);
#24=CIRCLE('',#290,8.50000006332994);
#25=CIRCLE('',#294,8.50000012665987);
#26=CIRCLE('',#295,8.50000012665987);
#27=CIRCLE('',#296,8.50000006332994);
#28=CIRCLE('',#297,1.);
#29=CIRCLE('',#298,1.5);
#30=CIRCLE('',#299,1.);
#31=CIRCLE('',#301,1.);
#32=CIRCLE('',#304,1.5);
#33=CIRCLE('',#307,1.);
#34=CIRCLE('',#310,8.5);
#35=CIRCLE('',#311,8.5);
#36=CIRCLE('',#312,30.1844588807943);
#37=FACE_OUTER_BOUND('',#53,.T.);
#38=FACE_OUTER_BOUND('',#54,.T.);
#39=FACE_OUTER_BOUND('',#55,.T.);
#40=FACE_OUTER_BOUND('',#56,.T.);
#41=FACE_OUTER_BOUND('',#57,.T.);
#42=FACE_OUTER_BOUND('',#58,.T.);
#43=FACE_OUTER_BOUND('',#59,.T.);
#44=FACE_OUTER_BOUND('',#60,.T.);
#45=FACE_OUTER_BOUND('',#64,.T.);
#46=FACE_OUTER_BOUND('',#65,.T.);
#47=FACE_OUTER_BOUND('',#66,.T.);
#48=FACE_OUTER_BOUND('',#67,.T.);
#49=FACE_OUTER_BOUND('',#68,.T.);
#50=FACE_OUTER_BOUND('',#69,.T.);
#51=FACE_OUTER_BOUND('',#70,.T.);
#52=FACE_OUTER_BOUND('',#71,.T.);
#53=EDGE_LOOP('',(#173,#174,#175,#176));
#54=EDGE_LOOP('',(#177,#178,#179,#180));
#55=EDGE_LOOP('',(#181,#182,#183,#184));
#56=EDGE_LOOP('',(#185,#186,#187));
#57=EDGE_LOOP('',(#188,#189,#190,#191));
#58=EDGE_LOOP('',(#192,#193,#194,#195));
#59=EDGE_LOOP('',(#196,#197,#198,#199));
#60=EDGE_LOOP('',(#200,#201,#202,#203,#204,#205,#206,#207));
#61=EDGE_LOOP('',(#208));
#62=EDGE_LOOP('',(#209));
#63=EDGE_LOOP('',(#210));
#64=EDGE_LOOP('',(#211,#212,#213,#214));
#65=EDGE_LOOP('',(#215));
#66=EDGE_LOOP('',(#216,#217,#218,#219));
#67=EDGE_LOOP('',(#220));
#68=EDGE_LOOP('',(#221,#222,#223,#224));
#69=EDGE_LOOP('',(#225));
#70=EDGE_LOOP('',(#226,#227,#228,#229,#230,#231,#232,#233,#234,#235,#236,
#237,#238));
#71=EDGE_LOOP('',(#239,#240,#241,#242));
#72=LINE('',#398,#93);
#73=LINE('',#400,#94);
#74=LINE('',#402,#95);
#75=LINE('',#403,#96);
#76=LINE('',#406,#97);
#77=LINE('',#408,#98);
#78=LINE('',#409,#99);
#79=LINE('',#413,#100);
#80=LINE('',#415,#101);
#81=LINE('',#417,#102);
#82=LINE('',#418,#103);
#83=LINE('',#421,#104);
#84=LINE('',#426,#105);
#85=LINE('',#429,#106);
#86=LINE('',#430,#107);
#87=LINE('',#433,#108);
#88=LINE('',#434,#109);
#89=LINE('',#449,#110);
#90=LINE('',#454,#111);
#91=LINE('',#459,#112);
#92=LINE('',#465,#113);
#93=VECTOR('',#317,10.);
#94=VECTOR('',#318,10.);
#95=VECTOR('',#319,10.);
#96=VECTOR('',#320,10.);
#97=VECTOR('',#323,10.);
#98=VECTOR('',#324,10.);
#99=VECTOR('',#325,10.);
#100=VECTOR('',#328,10.);
#101=VECTOR('',#329,10.);
#102=VECTOR('',#330,10.);
#103=VECTOR('',#331,10.);
#104=VECTOR('',#334,10.);
#105=VECTOR('',#341,10.);
#106=VECTOR('',#344,10.);
#107=VECTOR('',#345,10.);
#108=VECTOR('',#348,10.);
#109=VECTOR('',#349,10.);
#110=VECTOR('',#368,1.);
#111=VECTOR('',#375,1.5);
#112=VECTOR('',#382,1.);
#113=VECTOR('',#389,8.50000006332994);
#114=VERTEX_POINT('',#396);
#115=VERTEX_POINT('',#397);
#116=VERTEX_POINT('',#399);
#117=VERTEX_POINT('',#401);
#118=VERTEX_POINT('',#405);
#119=VERTEX_POINT('',#407);
#120=VERTEX_POINT('',#411);
#121=VERTEX_POINT('',#412);
#122=VERTEX_POINT('',#414);
#123=VERTEX_POINT('',#416);
#124=VERTEX_POINT('',#420);
#125=VERTEX_POINT('',#424);
#126=VERTEX_POINT('',#428);
#127=VERTEX_POINT('',#432);
#128=VERTEX_POINT('',#436);
#129=VERTEX_POINT('',#440);
#130=VERTEX_POINT('',#442);
#131=VERTEX_POINT('',#444);
#132=VERTEX_POINT('',#447);
#133=VERTEX_POINT('',#452);
#134=VERTEX_POINT('',#457);
#135=VERTEX_POINT('',#462);
#136=VERTEX_POINT('',#463);
#137=VERTEX_POINT('',#494);
#138=EDGE_CURVE('',#114,#115,#72,.T.);
#139=EDGE_CURVE('',#116,#114,#73,.T.);
#140=EDGE_CURVE('',#117,#116,#74,.T.);
#141=EDGE_CURVE('',#115,#117,#75,.T.);
#142=EDGE_CURVE('',#115,#118,#76,.T.);
#143=EDGE_CURVE('',#119,#117,#77,.T.);
#144=EDGE_CURVE('',#118,#119,#78,.T.);
#145=EDGE_CURVE('',#120,#121,#79,.T.);
#146=EDGE_CURVE('',#120,#122,#80,.T.);
#147=EDGE_CURVE('',#123,#122,#81,.T.);
#148=EDGE_CURVE('',#121,#123,#82,.T.);
#149=EDGE_CURVE('',#124,#121,#83,.T.);
#150=EDGE_CURVE('',#120,#124,#23,.T.);
#151=EDGE_CURVE('',#125,#118,#24,.T.);
#152=EDGE_CURVE('',#114,#125,#84,.T.);
#153=EDGE_CURVE('',#126,#125,#85,.T.);
#154=EDGE_CURVE('',#116,#126,#86,.T.);
#155=EDGE_CURVE('',#127,#123,#87,.T.);
#156=EDGE_CURVE('',#124,#127,#88,.T.);
#157=EDGE_CURVE('',#128,#126,#25,.T.);
#158=EDGE_CURVE('',#127,#128,#26,.T.);
#159=EDGE_CURVE('',#122,#119,#27,.T.);
#160=EDGE_CURVE('',#129,#129,#28,.T.);
#161=EDGE_CURVE('',#130,#130,#29,.T.);
#162=EDGE_CURVE('',#131,#131,#30,.T.);
#163=EDGE_CURVE('',#132,#132,#31,.T.);
#164=EDGE_CURVE('',#132,#131,#89,.T.);
#165=EDGE_CURVE('',#133,#133,#32,.T.);
#166=EDGE_CURVE('',#133,#130,#90,.T.);
#167=EDGE_CURVE('',#134,#134,#33,.T.);
#168=EDGE_CURVE('',#134,#129,#91,.T.);
#169=EDGE_CURVE('',#135,#136,#34,.T.);
#170=EDGE_CURVE('',#135,#128,#92,.T.);
#171=EDGE_CURVE('',#136,#135,#35,.T.);
#172=EDGE_CURVE('',#137,#136,#36,.T.);
#173=ORIENTED_EDGE('',*,*,#138,.F.);
#174=ORIENTED_EDGE('',*,*,#139,.F.);
#175=ORIENTED_EDGE('',*,*,#140,.F.);
#176=ORIENTED_EDGE('',*,*,#141,.F.);
#177=ORIENTED_EDGE('',*,*,#142,.F.);
#178=ORIENTED_EDGE('',*,*,#141,.T.);
#179=ORIENTED_EDGE('',*,*,#143,.F.);
#180=ORIENTED_EDGE('',*,*,#144,.F.);
#181=ORIENTED_EDGE('',*,*,#145,.F.);
#182=ORIENTED_EDGE('',*,*,#146,.T.);
#183=ORIENTED_EDGE('',*,*,#147,.F.);
#184=ORIENTED_EDGE('',*,*,#148,.F.);
#185=ORIENTED_EDGE('',*,*,#145,.T.);
#186=ORIENTED_EDGE('',*,*,#149,.F.);
#187=ORIENTED_EDGE('',*,*,#150,.F.);
#188=ORIENTED_EDGE('',*,*,#138,.T.);
#189=ORIENTED_EDGE('',*,*,#142,.T.);
#190=ORIENTED_EDGE('',*,*,#151,.F.);
#191=ORIENTED_EDGE('',*,*,#152,.F.);
#192=ORIENTED_EDGE('',*,*,#139,.T.);
#193=ORIENTED_EDGE('',*,*,#152,.T.);
#194=ORIENTED_EDGE('',*,*,#153,.F.);
#195=ORIENTED_EDGE('',*,*,#154,.F.);
#196=ORIENTED_EDGE('',*,*,#148,.T.);
#197=ORIENTED_EDGE('',*,*,#155,.F.);
#198=ORIENTED_EDGE('',*,*,#156,.F.);
#199=ORIENTED_EDGE('',*,*,#149,.T.);
#200=ORIENTED_EDGE('',*,*,#154,.T.);
#201=ORIENTED_EDGE('',*,*,#157,.F.);
#202=ORIENTED_EDGE('',*,*,#158,.F.);
#203=ORIENTED_EDGE('',*,*,#155,.T.);
#204=ORIENTED_EDGE('',*,*,#147,.T.);
#205=ORIENTED_EDGE('',*,*,#159,.T.);
#206=ORIENTED_EDGE('',*,*,#143,.T.);
#207=ORIENTED_EDGE('',*,*,#140,.T.);
#208=ORIENTED_EDGE('',*,*,#160,.T.);
#209=ORIENTED_EDGE('',*,*,#161,.T.);
#210=ORIENTED_EDGE('',*,*,#162,.T.);
#211=ORIENTED_EDGE('',*,*,#163,.F.);
#212=ORIENTED_EDGE('',*,*,#164,.T.);
#213=ORIENTED_EDGE('',*,*,#162,.F.);
#214=ORIENTED_EDGE('',*,*,#164,.F.);
#215=ORIENTED_EDGE('',*,*,#163,.T.);
#216=ORIENTED_EDGE('',*,*,#165,.F.);
#217=ORIENTED_EDGE('',*,*,#166,.T.);
#218=ORIENTED_EDGE('',*,*,#161,.F.);
#219=ORIENTED_EDGE('',*,*,#166,.F.);
#220=ORIENTED_EDGE('',*,*,#165,.T.);
#221=ORIENTED_EDGE('',*,*,#167,.F.);
#222=ORIENTED_EDGE('',*,*,#168,.T.);
#223=ORIENTED_EDGE('',*,*,#160,.F.);
#224=ORIENTED_EDGE('',*,*,#168,.F.);
#225=ORIENTED_EDGE('',*,*,#167,.T.);
#226=ORIENTED_EDGE('',*,*,#169,.F.);
#227=ORIENTED_EDGE('',*,*,#170,.T.);
#228=ORIENTED_EDGE('',*,*,#157,.T.);
#229=ORIENTED_EDGE('',*,*,#153,.T.);
#230=ORIENTED_EDGE('',*,*,#151,.T.);
#231=ORIENTED_EDGE('',*,*,#144,.T.);
#232=ORIENTED_EDGE('',*,*,#159,.F.);
#233=ORIENTED_EDGE('',*,*,#146,.F.);
#234=ORIENTED_EDGE('',*,*,#150,.T.);
#235=ORIENTED_EDGE('',*,*,#156,.T.);
#236=ORIENTED_EDGE('',*,*,#158,.T.);
#237=ORIENTED_EDGE('',*,*,#170,.F.);
#238=ORIENTED_EDGE('',*,*,#171,.F.);
#239=ORIENTED_EDGE('',*,*,#172,.T.);
#240=ORIENTED_EDGE('',*,*,#171,.T.);
#241=ORIENTED_EDGE('',*,*,#169,.T.);
#242=ORIENTED_EDGE('',*,*,#172,.F.);
#243=PLANE('',#284);
#244=PLANE('',#285);
#245=PLANE('',#286);
#246=PLANE('',#287);
#247=PLANE('',#289);
#248=PLANE('',#291);
#249=PLANE('',#292);
#250=PLANE('',#293);
#251=PLANE('',#302);
#252=PLANE('',#305);
#253=PLANE('',#308);
#254=ADVANCED_FACE('',(#37),#243,.T.);
#255=ADVANCED_FACE('',(#38),#244,.T.);
#256=ADVANCED_FACE('',(#39),#245,.T.);
#257=ADVANCED_FACE('',(#40),#246,.T.);
#258=ADVANCED_FACE('',(#41),#247,.T.);
#259=ADVANCED_FACE('',(#42),#248,.F.);
#260=ADVANCED_FACE('',(#43),#249,.F.);
#261=ADVANCED_FACE('',(#44,#20,#21,#22),#250,.T.);
#262=ADVANCED_FACE('',(#45),#16,.T.);
#263=ADVANCED_FACE('',(#46),#251,.T.);
#264=ADVANCED_FACE('',(#47),#17,.T.);
#265=ADVANCED_FACE('',(#48),#252,.T.);
#266=ADVANCED_FACE('',(#49),#18,.T.);
#267=ADVANCED_FACE('',(#50),#253,.T.);
#268=ADVANCED_FACE('',(#51),#19,.T.);
#269=ADVANCED_FACE('',(#52),#15,.F.);
#270=CLOSED_SHELL('',(#254,#255,#256,#257,#258,#259,#260,#261,#262,#263,
#264,#265,#266,#267,#268,#269));
#271=DERIVED_UNIT_ELEMENT(#273,1.);
#272=DERIVED_UNIT_ELEMENT(#501,-3.);
#273=(
MASS_UNIT()
NAMED_UNIT(*)
SI_UNIT(.KILO.,.GRAM.)
);
#274=DERIVED_UNIT((#271,#272));
#275=MEASURE_REPRESENTATION_ITEM('density measure',
POSITIVE_RATIO_MEASURE(7850.),#274);
#276=PROPERTY_DEFINITION_REPRESENTATION(#281,#278);
#277=PROPERTY_DEFINITION_REPRESENTATION(#282,#279);
#278=REPRESENTATION('material name',(#280),#498);
#279=REPRESENTATION('density',(#275),#498);
#280=DESCRIPTIVE_REPRESENTATION_ITEM('A\X\E7o','A\X\E7o');
#281=PROPERTY_DEFINITION('material property','material name',#508);
#282=PROPERTY_DEFINITION('material property','density of part',#508);
#283=AXIS2_PLACEMENT_3D('',#394,#313,#314);
#284=AXIS2_PLACEMENT_3D('',#395,#315,#316);
#285=AXIS2_PLACEMENT_3D('',#404,#321,#322);
#286=AXIS2_PLACEMENT_3D('',#410,#326,#327);
#287=AXIS2_PLACEMENT_3D('',#419,#332,#333);
#288=AXIS2_PLACEMENT_3D('',#422,#335,#336);
#289=AXIS2_PLACEMENT_3D('',#423,#337,#338);
#290=AXIS2_PLACEMENT_3D('',#425,#339,#340);
#291=AXIS2_PLACEMENT_3D('',#427,#342,#343);
#292=AXIS2_PLACEMENT_3D('',#431,#346,#347);
#293=AXIS2_PLACEMENT_3D('',#435,#350,#351);
#294=AXIS2_PLACEMENT_3D('',#437,#352,#353);
#295=AXIS2_PLACEMENT_3D('',#438,#354,#355);
#296=AXIS2_PLACEMENT_3D('',#439,#356,#357);
#297=AXIS2_PLACEMENT_3D('',#441,#358,#359);
#298=AXIS2_PLACEMENT_3D('',#443,#360,#361);
#299=AXIS2_PLACEMENT_3D('',#445,#362,#363);
#300=AXIS2_PLACEMENT_3D('',#446,#364,#365);
#301=AXIS2_PLACEMENT_3D('',#448,#366,#367);
#302=AXIS2_PLACEMENT_3D('',#450,#369,#370);
#303=AXIS2_PLACEMENT_3D('',#451,#371,#372);
#304=AXIS2_PLACEMENT_3D('',#453,#373,#374);
#305=AXIS2_PLACEMENT_3D('',#455,#376,#377);
#306=AXIS2_PLACEMENT_3D('',#456,#378,#379);
#307=AXIS2_PLACEMENT_3D('',#458,#380,#381);
#308=AXIS2_PLACEMENT_3D('',#460,#383,#384);
#309=AXIS2_PLACEMENT_3D('',#461,#385,#386);
#310=AXIS2_PLACEMENT_3D('',#464,#387,#388);
#311=AXIS2_PLACEMENT_3D('',#466,#390,#391);
#312=AXIS2_PLACEMENT_3D('',#495,#392,#393);
#313=DIRECTION('axis',(0.,0.,1.));
#314=DIRECTION('refdir',(1.,0.,0.));
#315=DIRECTION('center_axis',(-1.,-1.01988444203088E-9,0.));
#316=DIRECTION('ref_axis',(1.01988444203088E-9,-1.,0.));
#317=DIRECTION('',(-1.01988444203088E-9,1.,0.));
#318=DIRECTION('',(0.,0.,-1.));
#319=DIRECTION('',(1.01988444203088E-9,-1.,0.));
#320=DIRECTION('',(0.,0.,1.));
#321=DIRECTION('center_axis',(-1.,1.0198843114065E-9,0.));
#322=DIRECTION('ref_axis',(-1.0198843114065E-9,-1.,0.));
#323=DIRECTION('',(1.0198843114065E-9,1.,0.));
#324=DIRECTION('',(-1.0198843114065E-9,-1.,0.));
#325=DIRECTION('',(0.,0.,1.));
#326=DIRECTION('center_axis',(1.,-1.01988436385771E-9,0.));
#327=DIRECTION('ref_axis',(1.01988436385771E-9,1.,0.));
#328=DIRECTION('',(-1.01988436385771E-9,-1.,0.));
#329=DIRECTION('',(0.,0.,1.));
#330=DIRECTION('',(1.01988436385771E-9,1.,0.));
#331=DIRECTION('',(0.,0.,1.));
#332=DIRECTION('center_axis',(0.,0.,1.));
#333=DIRECTION('ref_axis',(-1.,0.,0.));
#334=DIRECTION('',(-1.,0.,0.));
#335=DIRECTION('center_axis',(0.,0.,-1.));
#336=DIRECTION('ref_axis',(0.,1.,0.));
#337=DIRECTION('center_axis',(0.,0.,1.));
#338=DIRECTION('ref_axis',(-1.,0.,0.));
#339=DIRECTION('center_axis',(0.,0.,-1.));
#340=DIRECTION('ref_axis',(0.,1.,0.));
#341=DIRECTION('',(-1.,0.,0.));
#342=DIRECTION('center_axis',(0.,-1.,0.));
#343=DIRECTION('ref_axis',(-1.,0.,0.));
#344=DIRECTION('',(0.,0.,-1.));
#345=DIRECTION('',(-1.,0.,0.));
#346=DIRECTION('center_axis',(0.,-1.,0.));
#347=DIRECTION('ref_axis',(-1.,0.,0.));
#348=DIRECTION('',(-1.,0.,0.));
#349=DIRECTION('',(0.,0.,1.));
#350=DIRECTION('center_axis',(0.,0.,1.));
#351=DIRECTION('ref_axis',(1.,0.,0.));
#352=DIRECTION('center_axis',(0.,0.,-1.));
#353=DIRECTION('ref_axis',(1.,0.,0.));
#354=DIRECTION('center_axis',(0.,0.,-1.));
#355=DIRECTION('ref_axis',(1.,0.,0.));
#356=DIRECTION('center_axis',(0.,0.,1.));
#357=DIRECTION('ref_axis',(0.993017802378248,0.117964588584352,0.));
#358=DIRECTION('center_axis',(0.,0.,-1.));
#359=DIRECTION('ref_axis',(-1.,0.,0.));
#360=DIRECTION('center_axis',(0.,0.,-1.));
#361=DIRECTION('ref_axis',(-1.,0.,0.));
#362=DIRECTION('center_axis',(0.,0.,-1.));
#363=DIRECTION('ref_axis',(-1.,0.,0.));
#364=DIRECTION('center_axis',(0.,0.,1.));
#365=DIRECTION('ref_axis',(-1.,0.,0.));
#366=DIRECTION('center_axis',(0.,0.,1.));
#367=DIRECTION('ref_axis',(-1.,0.,0.));
#368=DIRECTION('',(0.,0.,-1.));
#369=DIRECTION('center_axis',(0.,0.,1.));
#370=DIRECTION('ref_axis',(-1.,0.,0.));
#371=DIRECTION('center_axis',(0.,0.,1.));
#372=DIRECTION('ref_axis',(-1.,0.,0.));
#373=DIRECTION('center_axis',(0.,0.,1.));
#374=DIRECTION('ref_axis',(-1.,0.,0.));
#375=DIRECTION('',(0.,0.,-1.));
#376=DIRECTION('center_axis',(0.,0.,1.));
#377=DIRECTION('ref_axis',(-1.,0.,0.));
#378=DIRECTION('center_axis',(0.,0.,1.));
#379=DIRECTION('ref_axis',(-1.,0.,0.));
#380=DIRECTION('center_axis',(0.,0.,1.));
#381=DIRECTION('ref_axis',(-1.,0.,0.));
#382=DIRECTION('',(0.,0.,-1.));
#383=DIRECTION('center_axis',(0.,0.,1.));
#384=DIRECTION('ref_axis',(-1.,0.,0.));
#385=DIRECTION('center_axis',(0.,0.,-1.));
#386=DIRECTION('ref_axis',(0.,1.,0.));
#387=DIRECTION('center_axis',(0.,0.,-1.));
#388=DIRECTION('ref_axis',(1.,0.,0.));
#389=DIRECTION('',(0.,0.,1.));
#390=DIRECTION('center_axis',(0.,0.,-1.));
#391=DIRECTION('ref_axis',(1.,0.,0.));
#392=DIRECTION('center_axis',(-1.22464679914735E-16,-1.,0.));
#393=DIRECTION('ref_axis',(1.,-1.22464679914735E-16,0.));
#394=CARTESIAN_POINT('',(0.,0.,0.));
#395=CARTESIAN_POINT('Origin',(-2.,4.50000006909499,3.));
#396=CARTESIAN_POINT('',(-1.99999999643316,1.0026990170064,3.));
#397=CARTESIAN_POINT('',(-2.,4.50000006909499,3.));
#398=CARTESIAN_POINT('',(-2.00000000012817,4.62567481966967,3.));
#399=CARTESIAN_POINT('',(-1.99999999643316,1.0026990170064,6.));
#400=CARTESIAN_POINT('',(-1.99999999643316,1.00269901790837,4.5));
#401=CARTESIAN_POINT('',(-2.,4.50000006909499,6.));
#402=CARTESIAN_POINT('',(-2.,4.50000006909499,6.));
#403=CARTESIAN_POINT('',(-2.,4.50000006909499,3.));
#404=CARTESIAN_POINT('Origin',(-1.99999999616385,8.26135588701719,3.));
#405=CARTESIAN_POINT('',(-1.99999999616385,8.26135588701719,3.));
#406=CARTESIAN_POINT('',(-1.99999999795375,6.50635273067054,3.));
#407=CARTESIAN_POINT('',(-1.99999999616385,8.26135588701719,6.));
#408=CARTESIAN_POINT('',(-2.,4.50000006909499,6.));
#409=CARTESIAN_POINT('',(-1.99999999616385,8.26135588701719,3.));
#410=CARTESIAN_POINT('Origin',(1.99999999643316,1.0026990170064,3.));
#411=CARTESIAN_POINT('',(2.00000000383615,8.26135588515979,3.));
#412=CARTESIAN_POINT('',(1.99999999643316,1.0026990170064,3.));
#413=CARTESIAN_POINT('',(1.99999999834475,2.87702429362537,3.));
#414=CARTESIAN_POINT('',(2.00000000383615,8.26135588515979,6.));
#415=CARTESIAN_POINT('',(2.00000000383615,8.26135588515979,3.));
#416=CARTESIAN_POINT('',(1.99999999643316,1.0026990170064,6.));
#417=CARTESIAN_POINT('',(2.,4.50000006501546,6.));
#418=CARTESIAN_POINT('',(1.99999999643316,1.00269901790837,4.5));
#419=CARTESIAN_POINT('Origin',(0.,4.75134957228412,3.));
#420=CARTESIAN_POINT('',(8.44065144599061,1.00269901790837,3.));
#421=CARTESIAN_POINT('',(8.44065144599061,1.00269901790837,3.));
#422=CARTESIAN_POINT('Origin',(0.,0.,3.));
#423=CARTESIAN_POINT('Origin',(0.,4.75134957228412,3.));
#424=CARTESIAN_POINT('',(-8.44065144599061,1.00269901790837,3.));
#425=CARTESIAN_POINT('Origin',(0.,0.,3.));
#426=CARTESIAN_POINT('',(-1.11561403697049,1.00269901790837,3.));
#427=CARTESIAN_POINT('Origin',(-1.11561403697049,1.00269901790837,6.));
#428=CARTESIAN_POINT('',(-8.44065144599061,1.00269901790837,6.));
#429=CARTESIAN_POINT('',(-8.44065138221539,1.00269901790837,3.75000001117587));
#430=CARTESIAN_POINT('',(-0.557807018485245,1.00269901790837,6.));
#431=CARTESIAN_POINT('Origin',(8.44065144599061,1.00269901790837,6.));
#432=CARTESIAN_POINT('',(8.44065144599061,1.00269901790837,6.));
#433=CARTESIAN_POINT('',(4.22032572299531,1.00269901790837,6.));
#434=CARTESIAN_POINT('',(8.44065138221539,1.00269901790837,3.75000001117587));
#435=CARTESIAN_POINT('Origin',(0.,8.50000012665987,6.));
#436=CARTESIAN_POINT('',(-1.04094978703093E-15,-8.50000006332994,6.));
#437=CARTESIAN_POINT('Origin',(0.,0.,6.));
#438=CARTESIAN_POINT('Origin',(0.,0.,6.));
#439=CARTESIAN_POINT('Origin',(1.11022302462516E-15,-1.11022302462516E-15,
6.));
#440=CARTESIAN_POINT('',(-3.,-2.,6.));
#441=CARTESIAN_POINT('Origin',(-4.,-2.,6.));
#442=CARTESIAN_POINT('',(1.5,1.83697019872103E-16,6.));
#443=CARTESIAN_POINT('Origin',(0.,0.,6.));
#444=CARTESIAN_POINT('',(5.,-2.,6.));
#445=CARTESIAN_POINT('Origin',(4.,-2.,6.));
#446=CARTESIAN_POINT('Origin',(4.,-2.,6.));
#447=CARTESIAN_POINT('',(5.,-2.,7.6));
#448=CARTESIAN_POINT('Origin',(4.,-2.,7.6));
#449=CARTESIAN_POINT('',(5.,-2.,6.));
#450=CARTESIAN_POINT('Origin',(4.,-2.,7.6));
#451=CARTESIAN_POINT('Origin',(0.,0.,6.));
#452=CARTESIAN_POINT('',(1.5,1.83697019872103E-16,7.6));
#453=CARTESIAN_POINT('Origin',(0.,0.,7.6));
#454=CARTESIAN_POINT('',(1.5,1.83697019872103E-16,6.));
#455=CARTESIAN_POINT('Origin',(0.,0.,7.6));
#456=CARTESIAN_POINT('Origin',(-4.,-2.,6.));
#457=CARTESIAN_POINT('',(-3.,-2.,7.6));
#458=CARTESIAN_POINT('Origin',(-4.,-2.,7.6));
#459=CARTESIAN_POINT('',(-3.,-2.,6.));
#460=CARTESIAN_POINT('Origin',(-4.,-2.,7.6));
#461=CARTESIAN_POINT('Origin',(0.,0.,3.75000001117587));
#462=CARTESIAN_POINT('',(-1.04094978703093E-15,-8.50000006332994,1.50000002235174));
#463=CARTESIAN_POINT('',(8.5,-1.04094977927525E-15,1.50000002235174));
#464=CARTESIAN_POINT('Origin',(0.,0.,1.50000002235174));
#465=CARTESIAN_POINT('',(-1.04094978703093E-15,-8.50000006332994,3.75000001117587));
#466=CARTESIAN_POINT('Origin',(0.,0.,1.50000002235174));
#467=CARTESIAN_POINT('Ctrl Pts',(8.5,0.,1.50000002235174));
#468=CARTESIAN_POINT('Ctrl Pts',(8.5,-8.5,1.50000002235174));
#469=CARTESIAN_POINT('Ctrl Pts',(0.,-8.5,1.50000002235174));
#470=CARTESIAN_POINT('Ctrl Pts',(-8.5,-8.5,1.50000002235174));
#471=CARTESIAN_POINT('Ctrl Pts',(-8.5,0.,1.50000002235174));
#472=CARTESIAN_POINT('Ctrl Pts',(-8.5,8.5,1.50000002235174));
#473=CARTESIAN_POINT('Ctrl Pts',(0.,8.5,1.50000002235174));
#474=CARTESIAN_POINT('Ctrl Pts',(8.5,8.5,1.50000002235174));
#475=CARTESIAN_POINT('Ctrl Pts',(8.5,0.,1.50000002235174));
#476=CARTESIAN_POINT('Ctrl Pts',(4.35834553089317,0.,0.136042011929841));
#477=CARTESIAN_POINT('Ctrl Pts',(4.35834553089317,-4.35834553089317,0.136042011929841));
#478=CARTESIAN_POINT('Ctrl Pts',(0.,-4.35834553089317,0.13604201192984));
#479=CARTESIAN_POINT('Ctrl Pts',(-4.35834553089317,-4.35834553089317,0.136042011929839));
#480=CARTESIAN_POINT('Ctrl Pts',(-4.35834553089317,0.,0.136042011929839));
#481=CARTESIAN_POINT('Ctrl Pts',(-4.35834553089317,4.35834553089317,0.136042011929839));
#482=CARTESIAN_POINT('Ctrl Pts',(0.,4.35834553089317,0.13604201192984));
#483=CARTESIAN_POINT('Ctrl Pts',(4.35834553089317,4.35834553089317,0.136042011929841));
#484=CARTESIAN_POINT('Ctrl Pts',(4.35834553089317,0.,0.136042011929841));
#485=CARTESIAN_POINT('Ctrl Pts',(-1.94289029309402E-15,0.,-4.44089209850063E-15));
#486=CARTESIAN_POINT('Ctrl Pts',(-1.94289029309402E-15,1.94289029309402E-15,
-4.44089209850063E-15));
#487=CARTESIAN_POINT('Ctrl Pts',(0.,1.94289029309402E-15,-4.44089209850063E-15));
#488=CARTESIAN_POINT('Ctrl Pts',(1.94289029309402E-15,1.94289029309402E-15,
-4.44089209850063E-15));
#489=CARTESIAN_POINT('Ctrl Pts',(1.94289029309402E-15,0.,-4.44089209850063E-15));
#490=CARTESIAN_POINT('Ctrl Pts',(1.94289029309402E-15,-1.94289029309402E-15,
-4.44089209850063E-15));
#491=CARTESIAN_POINT('Ctrl Pts',(0.,-1.94289029309402E-15,-4.44089209850063E-15));
#492=CARTESIAN_POINT('Ctrl Pts',(-1.94289029309402E-15,-1.94289029309402E-15,
-4.44089209850063E-15));
#493=CARTESIAN_POINT('Ctrl Pts',(-1.94289029309402E-15,0.,-4.44089209850063E-15));
#494=CARTESIAN_POINT('',(0.,0.,0.));
#495=CARTESIAN_POINT('Origin',(-0.941723296075416,1.15327842022125E-16,
30.1697649172146));
#496=UNCERTAINTY_MEASURE_WITH_UNIT(LENGTH_MEASURE(0.01),#500,
'DISTANCE_ACCURACY_VALUE',
'Maximum model space distance between geometric entities at asserted c
onnectivities');
#497=UNCERTAINTY_MEASURE_WITH_UNIT(LENGTH_MEASURE(0.01),#500,
'DISTANCE_ACCURACY_VALUE',
'Maximum model space distance between geometric entities at asserted c
onnectivities');
#498=(
GEOMETRIC_REPRESENTATION_CONTEXT(3)
GLOBAL_UNCERTAINTY_ASSIGNED_CONTEXT((#496))
GLOBAL_UNIT_ASSIGNED_CONTEXT((#500,#502,#503))
REPRESENTATION_CONTEXT('','3D')
);
#499=(
GEOMETRIC_REPRESENTATION_CONTEXT(3)
GLOBAL_UNCERTAINTY_ASSIGNED_CONTEXT((#497))
GLOBAL_UNIT_ASSIGNED_CONTEXT((#500,#502,#503))
REPRESENTATION_CONTEXT('','3D')
);
#500=(
LENGTH_UNIT()
NAMED_UNIT(*)
SI_UNIT(.MILLI.,.METRE.)
);
#501=(
LENGTH_UNIT()
NAMED_UNIT(*)
SI_UNIT($,.METRE.)
);
#502=(
NAMED_UNIT(*)
PLANE_ANGLE_UNIT()
SI_UNIT($,.RADIAN.)
);
#503=(
NAMED_UNIT(*)
SI_UNIT($,.STERADIAN.)
SOLID_ANGLE_UNIT()
);
#504=SHAPE_DEFINITION_REPRESENTATION(#505,#506);
#505=PRODUCT_DEFINITION_SHAPE('',$,#508);
#506=SHAPE_REPRESENTATION('',(#283),#498);
#507=PRODUCT_DEFINITION_CONTEXT('part definition',#512,'design');
#508=PRODUCT_DEFINITION('SlidePad_NexusV2','SlidePad_NexusV2 v2',#509,#507);
#509=PRODUCT_DEFINITION_FORMATION('',$,#514);
#510=PRODUCT_RELATED_PRODUCT_CATEGORY('SlidePad_NexusV2 v2',
'SlidePad_NexusV2 v2',(#514));
#511=APPLICATION_PROTOCOL_DEFINITION('international standard',
'automotive_design',2009,#512);
#512=APPLICATION_CONTEXT(
'Core Data for Automotive Mechanical Design Process');
#513=PRODUCT_CONTEXT('part definition',#512,'mechanical');
#514=PRODUCT('SlidePad_NexusV2','SlidePad_NexusV2 v2',$,(#513));
#515=PRESENTATION_STYLE_ASSIGNMENT((#516));
#516=SURFACE_STYLE_USAGE(.BOTH.,#517);
#517=SURFACE_SIDE_STYLE('',(#518));
#518=SURFACE_STYLE_FILL_AREA(#519);
#519=FILL_AREA_STYLE('A\X\E7o - Acetinado',(#520));
#520=FILL_AREA_STYLE_COLOUR('A\X\E7o - Acetinado',#521);
#521=COLOUR_RGB('A\X\E7o - Acetinado',0.627450980392157,0.627450980392157,
0.627450980392157);
ENDSEC;
END-ISO-10303-21;
