ISO-10303-21;
HEADER;
/* Generated by software containing ST-Developer
 * from STEP Tools, Inc. (www.steptools.com) 
 */

FILE_DESCRIPTION(
/* description */ (''),
/* implementation_level */ '2;1');

FILE_NAME(
/* name */ 'Roda simples Nexusv2 v3.step',
/* time_stamp */ '2026-09-07T15:53:16+01:00',
/* author */ (''),
/* organization */ (''),
/* preprocessor_version */ 'ST-DEVELOPER v20.1',
/* originating_system */ 'Autodesk Translation Framework v14.17.0.0',
/* authorisation */ '');

FILE_SCHEMA (('AUTOMOTIVE_DESIGN { 1 0 10303 214 3 1 1 }'));
ENDSEC;

DATA;
#10=MECHANICAL_DESIGN_GEOMETRIC_PRESENTATION_REPRESENTATION('',(#13),#293);
#11=SHAPE_REPRESENTATION_RELATIONSHIP('SRR','None',#300,#12);
#12=ADVANCED_BREP_SHAPE_REPRESENTATION('',(#14),#292);
#13=STYLED_ITEM('',(#309),#14);
#14=MANIFOLD_SOLID_BREP('Corpo1',#161);
#15=FACE_BOUND('',#39,.T.);
#16=FACE_BOUND('',#43,.T.);
#17=FACE_BOUND('',#45,.T.);
#18=FACE_BOUND('',#50,.T.);
#19=FACE_BOUND('',#52,.T.);
#20=PLANE('',#178);
#21=PLANE('',#186);
#22=PLANE('',#187);
#23=PLANE('',#189);
#24=PLANE('',#194);
#25=PLANE('',#195);
#26=FACE_OUTER_BOUND('',#37,.T.);
#27=FACE_OUTER_BOUND('',#38,.T.);
#28=FACE_OUTER_BOUND('',#40,.T.);
#29=FACE_OUTER_BOUND('',#41,.T.);
#30=FACE_OUTER_BOUND('',#42,.T.);
#31=FACE_OUTER_BOUND('',#44,.T.);
#32=FACE_OUTER_BOUND('',#46,.T.);
#33=FACE_OUTER_BOUND('',#47,.T.);
#34=FACE_OUTER_BOUND('',#48,.T.);
#35=FACE_OUTER_BOUND('',#49,.T.);
#36=FACE_OUTER_BOUND('',#51,.T.);
#37=EDGE_LOOP('',(#109,#110,#111,#112));
#38=EDGE_LOOP('',(#113));
#39=EDGE_LOOP('',(#114,#115));
#40=EDGE_LOOP('',(#116,#117,#118,#119));
#41=EDGE_LOOP('',(#120,#121,#122,#123));
#42=EDGE_LOOP('',(#124));
#43=EDGE_LOOP('',(#125));
#44=EDGE_LOOP('',(#126));
#45=EDGE_LOOP('',(#127));
#46=EDGE_LOOP('',(#128,#129,#130,#131));
#47=EDGE_LOOP('',(#132,#133,#134,#135));
#48=EDGE_LOOP('',(#136,#137,#138,#139));
#49=EDGE_LOOP('',(#140));
#50=EDGE_LOOP('',(#141));
#51=EDGE_LOOP('',(#142));
#52=EDGE_LOOP('',(#143,#144));
#53=LINE('',#253,#61);
#54=LINE('',#259,#62);
#55=LINE('',#264,#63);
#56=LINE('',#270,#64);
#57=LINE('',#279,#65);
#58=LINE('',#280,#66);
#59=LINE('',#281,#67);
#60=LINE('',#286,#68);
#61=VECTOR('',#202,2.5);
#62=VECTOR('',#209,10.);
#63=VECTOR('',#214,8.5);
#64=VECTOR('',#221,9.5);
#65=VECTOR('',#232,10.);
#66=VECTOR('',#233,10.);
#67=VECTOR('',#234,10.);
#68=VECTOR('',#241,10.);
#69=CIRCLE('',#176,2.5);
#70=CIRCLE('',#177,2.5);
#71=CIRCLE('',#179,1.5);
#72=CIRCLE('',#181,8.5);
#73=CIRCLE('',#182,8.5);
#74=CIRCLE('',#184,9.5);
#75=CIRCLE('',#185,9.5);
#76=CIRCLE('',#188,10.);
#77=CIRCLE('',#191,1.5);
#78=CIRCLE('',#193,10.);
#79=VERTEX_POINT('',#250);
#80=VERTEX_POINT('',#252);
#81=VERTEX_POINT('',#256);
#82=VERTEX_POINT('',#257);
#83=VERTEX_POINT('',#261);
#84=VERTEX_POINT('',#263);
#85=VERTEX_POINT('',#267);
#86=VERTEX_POINT('',#269);
#87=VERTEX_POINT('',#274);
#88=VERTEX_POINT('',#277);
#89=VERTEX_POINT('',#278);
#90=VERTEX_POINT('',#285);
#91=EDGE_CURVE('',#79,#79,#69,.T.);
#92=EDGE_CURVE('',#79,#80,#53,.T.);
#93=EDGE_CURVE('',#80,#80,#70,.T.);
#94=EDGE_CURVE('',#81,#82,#71,.T.);
#95=EDGE_CURVE('',#82,#81,#54,.T.);
#96=EDGE_CURVE('',#83,#83,#72,.T.);
#97=EDGE_CURVE('',#83,#84,#55,.T.);
#98=EDGE_CURVE('',#84,#84,#73,.T.);
#99=EDGE_CURVE('',#85,#85,#74,.T.);
#100=EDGE_CURVE('',#85,#86,#56,.T.);
#101=EDGE_CURVE('',#86,#86,#75,.T.);
#102=EDGE_CURVE('',#87,#87,#76,.T.);
#103=EDGE_CURVE('',#88,#89,#57,.T.);
#104=EDGE_CURVE('',#81,#88,#58,.T.);
#105=EDGE_CURVE('',#89,#82,#59,.T.);
#106=EDGE_CURVE('',#89,#88,#77,.T.);
#107=EDGE_CURVE('',#87,#90,#60,.T.);
#108=EDGE_CURVE('',#90,#90,#78,.T.);
#109=ORIENTED_EDGE('',*,*,#91,.F.);
#110=ORIENTED_EDGE('',*,*,#92,.T.);
#111=ORIENTED_EDGE('',*,*,#93,.F.);
#112=ORIENTED_EDGE('',*,*,#92,.F.);
#113=ORIENTED_EDGE('',*,*,#93,.T.);
#114=ORIENTED_EDGE('',*,*,#94,.T.);
#115=ORIENTED_EDGE('',*,*,#95,.T.);
#116=ORIENTED_EDGE('',*,*,#96,.F.);
#117=ORIENTED_EDGE('',*,*,#97,.T.);
#118=ORIENTED_EDGE('',*,*,#98,.F.);
#119=ORIENTED_EDGE('',*,*,#97,.F.);
#120=ORIENTED_EDGE('',*,*,#99,.F.);
#121=ORIENTED_EDGE('',*,*,#100,.T.);
#122=ORIENTED_EDGE('',*,*,#101,.F.);
#123=ORIENTED_EDGE('',*,*,#100,.F.);
#124=ORIENTED_EDGE('',*,*,#99,.T.);
#125=ORIENTED_EDGE('',*,*,#96,.T.);
#126=ORIENTED_EDGE('',*,*,#102,.T.);
#127=ORIENTED_EDGE('',*,*,#101,.T.);
#128=ORIENTED_EDGE('',*,*,#103,.F.);
#129=ORIENTED_EDGE('',*,*,#104,.F.);
#130=ORIENTED_EDGE('',*,*,#95,.F.);
#131=ORIENTED_EDGE('',*,*,#105,.F.);
#132=ORIENTED_EDGE('',*,*,#106,.F.);
#133=ORIENTED_EDGE('',*,*,#105,.T.);
#134=ORIENTED_EDGE('',*,*,#94,.F.);
#135=ORIENTED_EDGE('',*,*,#104,.T.);
#136=ORIENTED_EDGE('',*,*,#102,.F.);
#137=ORIENTED_EDGE('',*,*,#107,.T.);
#138=ORIENTED_EDGE('',*,*,#108,.T.);
#139=ORIENTED_EDGE('',*,*,#107,.F.);
#140=ORIENTED_EDGE('',*,*,#98,.T.);
#141=ORIENTED_EDGE('',*,*,#91,.T.);
#142=ORIENTED_EDGE('',*,*,#108,.F.);
#143=ORIENTED_EDGE('',*,*,#106,.T.);
#144=ORIENTED_EDGE('',*,*,#103,.T.);
#145=CYLINDRICAL_SURFACE('',#175,2.5);
#146=CYLINDRICAL_SURFACE('',#180,8.5);
#147=CYLINDRICAL_SURFACE('',#183,9.5);
#148=CYLINDRICAL_SURFACE('',#190,1.5);
#149=CYLINDRICAL_SURFACE('',#192,10.);
#150=ADVANCED_FACE('',(#26),#145,.T.);
#151=ADVANCED_FACE('',(#27,#15),#20,.T.);
#152=ADVANCED_FACE('',(#28),#146,.F.);
#153=ADVANCED_FACE('',(#29),#147,.T.);
#154=ADVANCED_FACE('',(#30,#16),#21,.T.);
#155=ADVANCED_FACE('',(#31,#17),#22,.T.);
#156=ADVANCED_FACE('',(#32),#23,.F.);
#157=ADVANCED_FACE('',(#33),#148,.F.);
#158=ADVANCED_FACE('',(#34),#149,.T.);
#159=ADVANCED_FACE('',(#35,#18),#24,.T.);
#160=ADVANCED_FACE('',(#36,#19),#25,.F.);
#161=CLOSED_SHELL('',(#150,#151,#152,#153,#154,#155,#156,#157,#158,#159,
#160));
#162=DERIVED_UNIT_ELEMENT(#164,1.);
#163=DERIVED_UNIT_ELEMENT(#295,-3.);
#164=(
MASS_UNIT()
NAMED_UNIT(*)
SI_UNIT(.KILO.,.GRAM.)
);
#165=DERIVED_UNIT((#162,#163));
#166=MEASURE_REPRESENTATION_ITEM('density measure',
POSITIVE_RATIO_MEASURE(7850.),#165);
#167=PROPERTY_DEFINITION_REPRESENTATION(#172,#169);
#168=PROPERTY_DEFINITION_REPRESENTATION(#173,#170);
#169=REPRESENTATION('material name',(#171),#292);
#170=REPRESENTATION('density',(#166),#292);
#171=DESCRIPTIVE_REPRESENTATION_ITEM('A\X\E7o','A\X\E7o');
#172=PROPERTY_DEFINITION('material property','material name',#302);
#173=PROPERTY_DEFINITION('material property','density of part',#302);
#174=AXIS2_PLACEMENT_3D('',#248,#196,#197);
#175=AXIS2_PLACEMENT_3D('',#249,#198,#199);
#176=AXIS2_PLACEMENT_3D('',#251,#200,#201);
#177=AXIS2_PLACEMENT_3D('',#254,#203,#204);
#178=AXIS2_PLACEMENT_3D('',#255,#205,#206);
#179=AXIS2_PLACEMENT_3D('',#258,#207,#208);
#180=AXIS2_PLACEMENT_3D('',#260,#210,#211);
#181=AXIS2_PLACEMENT_3D('',#262,#212,#213);
#182=AXIS2_PLACEMENT_3D('',#265,#215,#216);
#183=AXIS2_PLACEMENT_3D('',#266,#217,#218);
#184=AXIS2_PLACEMENT_3D('',#268,#219,#220);
#185=AXIS2_PLACEMENT_3D('',#271,#222,#223);
#186=AXIS2_PLACEMENT_3D('',#272,#224,#225);
#187=AXIS2_PLACEMENT_3D('',#273,#226,#227);
#188=AXIS2_PLACEMENT_3D('',#275,#228,#229);
#189=AXIS2_PLACEMENT_3D('',#276,#230,#231);
#190=AXIS2_PLACEMENT_3D('',#282,#235,#236);
#191=AXIS2_PLACEMENT_3D('',#283,#237,#238);
#192=AXIS2_PLACEMENT_3D('',#284,#239,#240);
#193=AXIS2_PLACEMENT_3D('',#287,#242,#243);
#194=AXIS2_PLACEMENT_3D('',#288,#244,#245);
#195=AXIS2_PLACEMENT_3D('',#289,#246,#247);
#196=DIRECTION('axis',(0.,0.,1.));
#197=DIRECTION('refdir',(1.,0.,0.));
#198=DIRECTION('center_axis',(0.,0.,-1.));
#199=DIRECTION('ref_axis',(-1.,0.,0.));
#200=DIRECTION('center_axis',(0.,0.,-1.));
#201=DIRECTION('ref_axis',(-1.,0.,0.));
#202=DIRECTION('',(0.,0.,1.));
#203=DIRECTION('center_axis',(0.,0.,1.));
#204=DIRECTION('ref_axis',(-1.,0.,0.));
#205=DIRECTION('center_axis',(0.,0.,1.));
#206=DIRECTION('ref_axis',(-1.,0.,0.));
#207=DIRECTION('center_axis',(0.,0.,-1.));
#208=DIRECTION('ref_axis',(0.74535599249993,-0.666666666666666,0.));
#209=DIRECTION('',(-1.,-1.24126707662364E-16,0.));
#210=DIRECTION('center_axis',(0.,0.,1.));
#211=DIRECTION('ref_axis',(-1.,0.,0.));
#212=DIRECTION('center_axis',(0.,0.,-1.));
#213=DIRECTION('ref_axis',(-1.,0.,0.));
#214=DIRECTION('',(0.,0.,-1.));
#215=DIRECTION('center_axis',(0.,0.,1.));
#216=DIRECTION('ref_axis',(-1.,0.,0.));
#217=DIRECTION('center_axis',(0.,0.,1.));
#218=DIRECTION('ref_axis',(-1.,0.,0.));
#219=DIRECTION('center_axis',(0.,0.,1.));
#220=DIRECTION('ref_axis',(-1.,0.,0.));
#221=DIRECTION('',(0.,0.,-1.));
#222=DIRECTION('center_axis',(0.,0.,-1.));
#223=DIRECTION('ref_axis',(-1.,0.,0.));
#224=DIRECTION('center_axis',(0.,0.,1.));
#225=DIRECTION('ref_axis',(-1.,0.,0.));
#226=DIRECTION('center_axis',(0.,0.,1.));
#227=DIRECTION('ref_axis',(1.,0.,0.));
#228=DIRECTION('center_axis',(0.,0.,1.));
#229=DIRECTION('ref_axis',(1.,0.,0.));
#230=DIRECTION('center_axis',(0.,-1.,0.));
#231=DIRECTION('ref_axis',(-1.,0.,0.));
#232=DIRECTION('',(1.,0.,0.));
#233=DIRECTION('',(0.,0.,-1.));
#234=DIRECTION('',(0.,0.,1.));
#235=DIRECTION('center_axis',(0.,0.,-1.));
#236=DIRECTION('ref_axis',(-6.12323399573677E-17,1.,0.));
#237=DIRECTION('center_axis',(0.,0.,1.));
#238=DIRECTION('ref_axis',(-1.,0.,0.));
#239=DIRECTION('center_axis',(0.,0.,1.));
#240=DIRECTION('ref_axis',(1.,0.,0.));
#241=DIRECTION('',(0.,0.,-1.));
#242=DIRECTION('center_axis',(0.,0.,1.));
#243=DIRECTION('ref_axis',(1.,0.,0.));
#244=DIRECTION('center_axis',(0.,0.,1.));
#245=DIRECTION('ref_axis',(1.,0.,0.));
#246=DIRECTION('center_axis',(0.,0.,1.));
#247=DIRECTION('ref_axis',(1.,0.,0.));
#248=CARTESIAN_POINT('',(0.,0.,0.));
#249=CARTESIAN_POINT('Origin',(-1.38777878078145E-16,-1.04083408558608E-16,
6.));
#250=CARTESIAN_POINT('',(2.5,2.0207829122823E-16,1.));
#251=CARTESIAN_POINT('Origin',(-1.38777878078145E-16,-1.04083408558608E-16,
1.));
#252=CARTESIAN_POINT('',(2.5,2.0207829122823E-16,6.));
#253=CARTESIAN_POINT('',(2.5,-4.10245108345447E-16,6.));
#254=CARTESIAN_POINT('Origin',(-1.38777878078145E-16,-1.04083408558608E-16,
6.));
#255=CARTESIAN_POINT('Origin',(0.,0.,6.));
#256=CARTESIAN_POINT('',(-1.11803398874989,-1.,6.));
#257=CARTESIAN_POINT('',(1.1180339887499,-1.,6.));
#258=CARTESIAN_POINT('Origin',(0.,0.,6.));
#259=CARTESIAN_POINT('',(1.1180339887499,-1.,6.));
#260=CARTESIAN_POINT('Origin',(0.,0.,1.));
#261=CARTESIAN_POINT('',(8.5,1.04094977927525E-15,10.));
#262=CARTESIAN_POINT('Origin',(0.,0.,10.));
#263=CARTESIAN_POINT('',(8.5,1.04094977927525E-15,1.));
#264=CARTESIAN_POINT('',(8.5,1.04094977927525E-15,1.));
#265=CARTESIAN_POINT('Origin',(0.,0.,1.));
#266=CARTESIAN_POINT('Origin',(0.,0.,1.));
#267=CARTESIAN_POINT('',(9.5,1.16341445918999E-15,10.));
#268=CARTESIAN_POINT('Origin',(0.,0.,10.));
#269=CARTESIAN_POINT('',(9.5,1.16341445918999E-15,1.));
#270=CARTESIAN_POINT('',(9.5,1.16341445918999E-15,1.));
#271=CARTESIAN_POINT('Origin',(0.,0.,1.));
#272=CARTESIAN_POINT('Origin',(0.,0.,10.));
#273=CARTESIAN_POINT('Origin',(0.,0.,1.));
#274=CARTESIAN_POINT('',(-10.,-1.22464679914735E-15,1.));
#275=CARTESIAN_POINT('Origin',(0.,0.,1.));
#276=CARTESIAN_POINT('Origin',(1.1180339887499,-1.,1.));
#277=CARTESIAN_POINT('',(-1.11803398874989,-1.,0.));
#278=CARTESIAN_POINT('',(1.1180339887499,-1.,0.));
#279=CARTESIAN_POINT('',(0.559016994374948,-1.,0.));
#280=CARTESIAN_POINT('',(-1.11803398874989,-1.,1.));
#281=CARTESIAN_POINT('',(1.1180339887499,-1.,1.));
#282=CARTESIAN_POINT('Origin',(0.,0.,1.));
#283=CARTESIAN_POINT('Origin',(0.,0.,0.));
#284=CARTESIAN_POINT('Origin',(0.,0.,0.));
#285=CARTESIAN_POINT('',(-10.,-1.22464679914735E-15,0.));
#286=CARTESIAN_POINT('',(-10.,-1.22464679914735E-15,0.));
#287=CARTESIAN_POINT('Origin',(0.,0.,0.));
#288=CARTESIAN_POINT('Origin',(0.,0.,1.));
#289=CARTESIAN_POINT('Origin',(0.,0.,0.));
#290=UNCERTAINTY_MEASURE_WITH_UNIT(LENGTH_MEASURE(0.01),#294,
'DISTANCE_ACCURACY_VALUE',
'Maximum model space distance between geometric entities at asserted c
onnectivities');
#291=UNCERTAINTY_MEASURE_WITH_UNIT(LENGTH_MEASURE(0.01),#294,
'DISTANCE_ACCURACY_VALUE',
'Maximum model space distance between geometric entities at asserted c
onnectivities');
#292=(
GEOMETRIC_REPRESENTATION_CONTEXT(3)
GLOBAL_UNCERTAINTY_ASSIGNED_CONTEXT((#290))
GLOBAL_UNIT_ASSIGNED_CONTEXT((#294,#296,#297))
REPRESENTATION_CONTEXT('','3D')
);
#293=(
GEOMETRIC_REPRESENTATION_CONTEXT(3)
GLOBAL_UNCERTAINTY_ASSIGNED_CONTEXT((#291))
GLOBAL_UNIT_ASSIGNED_CONTEXT((#294,#296,#297))
REPRESENTATION_CONTEXT('','3D')
);
#294=(
LENGTH_UNIT()
NAMED_UNIT(*)
SI_UNIT(.MILLI.,.METRE.)
);
#295=(
LENGTH_UNIT()
NAMED_UNIT(*)
SI_UNIT($,.METRE.)
);
#296=(
NAMED_UNIT(*)
PLANE_ANGLE_UNIT()
SI_UNIT($,.RADIAN.)
);
#297=(
NAMED_UNIT(*)
SI_UNIT($,.STERADIAN.)
SOLID_ANGLE_UNIT()
);
#298=SHAPE_DEFINITION_REPRESENTATION(#299,#300);
#299=PRODUCT_DEFINITION_SHAPE('',$,#302);
#300=SHAPE_REPRESENTATION('',(#174),#292);
#301=PRODUCT_DEFINITION_CONTEXT('part definition',#306,'design');
#302=PRODUCT_DEFINITION('Roda simples Nexusv2',
'Roda simples Nexusv2 v3',#303,#301);
#303=PRODUCT_DEFINITION_FORMATION('',$,#308);
#304=PRODUCT_RELATED_PRODUCT_CATEGORY('Roda simples Nexusv2 v3',
'Roda simples Nexusv2 v3',(#308));
#305=APPLICATION_PROTOCOL_DEFINITION('international standard',
'automotive_design',2009,#306);
#306=APPLICATION_CONTEXT(
'Core Data for Automotive Mechanical Design Process');
#307=PRODUCT_CONTEXT('part definition',#306,'mechanical');
#308=PRODUCT('Roda simples Nexusv2','Roda simples Nexusv2 v3',$,(#307));
#309=PRESENTATION_STYLE_ASSIGNMENT((#310));
#310=SURFACE_STYLE_USAGE(.BOTH.,#311);
#311=SURFACE_SIDE_STYLE('',(#312));
#312=SURFACE_STYLE_FILL_AREA(#313);
#313=FILL_AREA_STYLE('A\X\E7o - Acetinado',(#314));
#314=FILL_AREA_STYLE_COLOUR('A\X\E7o - Acetinado',#315);
#315=COLOUR_RGB('A\X\E7o - Acetinado',0.627450980392157,0.627450980392157,
0.627450980392157);
ENDSEC;
END-ISO-10303-21;
